<svg width="331" height="40" viewBox="0 0 331 40" fill="none" xmlns="http://www.w3.org/2000/svg">
<path d="M7.992 5.73599V32.76H20.952L20.136 39H0.12V5.73599H7.992Z" fill="#141414"/>
<path d="M45.3863 39H38.8103L38.4743 35.784C36.6183 38.472 34.0423 39.816 30.7463 39.816C28.4103 39.816 26.6342 39.112 25.4183 37.704C24.2343 36.296 23.6422 34.328 23.6422 31.8V13.512H31.2263V30.84C31.2263 32.088 31.4183 32.968 31.8023 33.48C32.2183 33.96 32.8422 34.2 33.6742 34.2C35.2742 34.2 36.6503 33.208 37.8023 31.224V13.512H45.3863V39Z" fill="#141414"/>
<path d="M62.391 12.696C64.151 12.696 65.735 12.952 67.143 13.464C68.551 13.976 69.879 14.76 71.127 15.816L67.863 20.328C66.263 19.112 64.647 18.504 63.015 18.504C61.319 18.504 60.039 19.128 59.175 20.376C58.311 21.624 57.879 23.64 57.879 26.424C57.879 29.112 58.311 31.016 59.175 32.136C60.039 33.256 61.287 33.816 62.919 33.816C63.783 33.816 64.567 33.688 65.271 33.432C65.975 33.144 66.823 32.696 67.815 32.088L71.127 36.792C68.599 38.808 65.735 39.816 62.535 39.816C59.943 39.816 57.703 39.272 55.815 38.184C53.927 37.064 52.471 35.512 51.447 33.528C50.423 31.512 49.911 29.16 49.911 26.472C49.911 23.784 50.423 21.4 51.447 19.32C52.471 17.24 53.927 15.624 55.815 14.472C57.703 13.288 59.895 12.696 62.391 12.696Z" fill="#141414"/>
<path d="M94.107 31.608C94.107 32.568 94.235 33.272 94.491 33.72C94.779 34.168 95.227 34.504 95.835 34.728L94.251 39.672C92.683 39.544 91.403 39.208 90.411 38.664C89.419 38.088 88.651 37.192 88.107 35.976C86.443 38.536 83.883 39.816 80.427 39.816C77.899 39.816 75.883 39.08 74.379 37.608C72.875 36.136 72.123 34.216 72.123 31.848C72.123 29.064 73.147 26.936 75.195 25.464C77.243 23.992 80.203 23.256 84.075 23.256H86.667V22.152C86.667 20.648 86.347 19.624 85.707 19.08C85.067 18.504 83.947 18.216 82.347 18.216C81.515 18.216 80.507 18.344 79.323 18.6C78.139 18.824 76.923 19.144 75.675 19.56L73.947 14.568C75.547 13.96 77.179 13.496 78.843 13.176C80.539 12.856 82.107 12.696 83.547 12.696C87.195 12.696 89.867 13.448 91.563 14.952C93.259 16.456 94.107 18.712 94.107 21.72V31.608ZM82.635 34.392C84.363 34.392 85.707 33.576 86.667 31.944V27.432H84.795C83.067 27.432 81.771 27.736 80.907 28.344C80.075 28.952 79.659 29.896 79.659 31.176C79.659 32.2 79.915 33 80.427 33.576C80.971 34.12 81.707 34.392 82.635 34.392Z" fill="#141414"/>
<path d="M108.655 12.696C110.479 12.696 112.191 12.968 113.791 13.512C115.391 14.056 116.799 14.824 118.015 15.816L115.231 20.088C113.151 18.776 111.055 18.12 108.943 18.12C107.951 18.12 107.183 18.296 106.639 18.648C106.127 18.968 105.871 19.432 105.871 20.04C105.871 20.52 105.983 20.92 106.207 21.24C106.463 21.528 106.959 21.832 107.695 22.152C108.431 22.472 109.567 22.856 111.103 23.304C113.759 24.072 115.727 25.08 117.007 26.328C118.319 27.544 118.975 29.24 118.975 31.416C118.975 33.144 118.479 34.648 117.487 35.928C116.495 37.176 115.135 38.136 113.407 38.808C111.679 39.48 109.759 39.816 107.647 39.816C105.503 39.816 103.503 39.48 101.647 38.808C99.8231 38.136 98.2711 37.208 96.9911 36.024L100.687 31.896C102.831 33.56 105.087 34.392 107.455 34.392C108.607 34.392 109.503 34.184 110.143 33.768C110.815 33.352 111.151 32.76 111.151 31.992C111.151 31.384 111.023 30.904 110.767 30.552C110.511 30.2 110.015 29.88 109.279 29.592C108.543 29.272 107.375 28.888 105.775 28.44C103.247 27.704 101.359 26.68 100.111 25.368C98.8631 24.056 98.2391 22.424 98.2391 20.472C98.2391 19 98.6551 17.688 99.4871 16.536C100.351 15.352 101.567 14.424 103.135 13.752C104.735 13.048 106.575 12.696 108.655 12.696Z" fill="#141414"/>
<path d="M167.441 39H159.713L159.137 25.992C158.977 22.888 158.897 20.12 158.897 17.688C158.897 15.832 158.945 14.072 159.041 12.408L153.905 35.496H146.465L140.993 12.408C141.185 15.192 141.281 17.816 141.281 20.28C141.281 22.136 141.233 24.072 141.137 26.088L140.561 39H132.881L135.377 5.73599H145.313L150.305 28.296L154.961 5.73599H164.945L167.441 39Z" fill="#141414"/>
<path d="M194.231 25.752C194.231 26.808 194.183 27.72 194.087 28.488H178.295C178.551 30.632 179.159 32.136 180.119 33C181.079 33.864 182.407 34.296 184.103 34.296C185.127 34.296 186.119 34.12 187.079 33.768C188.039 33.384 189.079 32.808 190.199 32.04L193.319 36.264C190.343 38.632 187.031 39.816 183.383 39.816C179.255 39.816 176.087 38.6 173.879 36.168C171.671 33.736 170.567 30.472 170.567 26.376C170.567 23.784 171.031 21.464 171.959 19.416C172.887 17.336 174.247 15.704 176.039 14.52C177.831 13.304 179.975 12.696 182.471 12.696C186.151 12.696 189.031 13.848 191.111 16.152C193.191 18.456 194.231 21.656 194.231 25.752ZM186.791 23.592C186.727 19.688 185.351 17.736 182.663 17.736C181.351 17.736 180.327 18.216 179.591 19.176C178.887 20.136 178.455 21.72 178.295 23.928H186.791V23.592Z" fill="#141414"/>
<path d="M206.076 13.512V39H198.492V13.512H206.076ZM202.236 0.071991C203.548 0.071991 204.62 0.487991 205.452 1.31999C206.316 2.11999 206.748 3.14399 206.748 4.39199C206.748 5.63999 206.316 6.67999 205.452 7.51199C204.62 8.31199 203.548 8.71199 202.236 8.71199C200.924 8.71199 199.852 8.31199 199.02 7.51199C198.188 6.67999 197.772 5.63999 197.772 4.39199C197.772 3.14399 198.188 2.11999 199.02 1.31999C199.852 0.487991 200.924 0.071991 202.236 0.071991Z" fill="#141414"/>
<path d="M225.863 12.792C226.791 12.792 227.638 12.904 228.406 13.128L227.207 20.472C226.247 20.248 225.479 20.136 224.903 20.136C223.399 20.136 222.247 20.664 221.447 21.72C220.679 22.744 220.071 24.296 219.623 26.376V39H212.039V13.512H218.662L219.287 18.456C219.863 16.696 220.726 15.32 221.878 14.328C223.062 13.304 224.391 12.792 225.863 12.792Z" fill="#141414"/>
<path d="M252.075 25.752C252.075 26.808 252.027 27.72 251.931 28.488H236.139C236.395 30.632 237.003 32.136 237.963 33C238.923 33.864 240.251 34.296 241.947 34.296C242.971 34.296 243.963 34.12 244.923 33.768C245.883 33.384 246.923 32.808 248.043 32.04L251.163 36.264C248.187 38.632 244.875 39.816 241.227 39.816C237.099 39.816 233.931 38.6 231.723 36.168C229.515 33.736 228.411 30.472 228.411 26.376C228.411 23.784 228.875 21.464 229.803 19.416C230.731 17.336 232.091 15.704 233.883 14.52C235.675 13.304 237.819 12.696 240.315 12.696C243.995 12.696 246.875 13.848 248.955 16.152C251.035 18.456 252.075 21.656 252.075 25.752ZM244.635 23.592C244.571 19.688 243.195 17.736 240.507 17.736C239.195 17.736 238.171 18.216 237.435 19.176C236.731 20.136 236.299 21.72 236.139 23.928H244.635V23.592Z" fill="#141414"/>
<path d="M263.103 39.816C260.895 39.816 259.167 39.192 257.919 37.944C256.703 36.664 256.095 34.856 256.095 32.52V3.38399L263.679 2.56799V32.232C263.679 33.288 264.111 33.816 264.975 33.816C265.423 33.816 265.839 33.736 266.223 33.576L267.711 38.952C266.335 39.528 264.799 39.816 263.103 39.816Z" fill="#141414"/>
<path d="M277.353 39.816C275.145 39.816 273.417 39.192 272.169 37.944C270.953 36.664 270.345 34.856 270.345 32.52V3.38399L277.929 2.56799V32.232C277.929 33.288 278.361 33.816 279.225 33.816C279.673 33.816 280.089 33.736 280.473 33.576L281.961 38.952C280.585 39.528 279.049 39.816 277.353 39.816Z" fill="#141414"/>
<path d="M306.825 25.752C306.825 26.808 306.777 27.72 306.681 28.488H290.889C291.145 30.632 291.753 32.136 292.713 33C293.673 33.864 295.001 34.296 296.697 34.296C297.721 34.296 298.713 34.12 299.673 33.768C300.633 33.384 301.673 32.808 302.793 32.04L305.913 36.264C302.937 38.632 299.625 39.816 295.977 39.816C291.849 39.816 288.681 38.6 286.473 36.168C284.265 33.736 283.161 30.472 283.161 26.376C283.161 23.784 283.625 21.464 284.553 19.416C285.481 17.336 286.841 15.704 288.633 14.52C290.425 13.304 292.569 12.696 295.065 12.696C298.745 12.696 301.625 13.848 303.705 16.152C305.785 18.456 306.825 21.656 306.825 25.752ZM299.385 23.592C299.321 19.688 297.945 17.736 295.257 17.736C293.945 17.736 292.921 18.216 292.185 19.176C291.481 20.136 291.049 21.72 290.889 23.928H299.385V23.592Z" fill="#141414"/>
<path d="M320.061 12.696C321.885 12.696 323.597 12.968 325.197 13.512C326.797 14.056 328.205 14.824 329.421 15.816L326.637 20.088C324.557 18.776 322.461 18.12 320.349 18.12C319.357 18.12 318.589 18.296 318.045 18.648C317.533 18.968 317.277 19.432 317.277 20.04C317.277 20.52 317.389 20.92 317.613 21.24C317.869 21.528 318.365 21.832 319.101 22.152C319.837 22.472 320.973 22.856 322.509 23.304C325.165 24.072 327.133 25.08 328.413 26.328C329.725 27.544 330.381 29.24 330.381 31.416C330.381 33.144 329.885 34.648 328.893 35.928C327.901 37.176 326.541 38.136 324.813 38.808C323.085 39.48 321.165 39.816 319.053 39.816C316.909 39.816 314.909 39.48 313.053 38.808C311.229 38.136 309.677 37.208 308.397 36.024L312.093 31.896C314.237 33.56 316.493 34.392 318.861 34.392C320.013 34.392 320.909 34.184 321.549 33.768C322.221 33.352 322.557 32.76 322.557 31.992C322.557 31.384 322.429 30.904 322.173 30.552C321.917 30.2 321.421 29.88 320.685 29.592C319.949 29.272 318.781 28.888 317.181 28.44C314.653 27.704 312.765 26.68 311.517 25.368C310.269 24.056 309.645 22.424 309.645 20.472C309.645 19 310.061 17.688 310.893 16.536C311.757 15.352 312.973 14.424 314.541 13.752C316.141 13.048 317.981 12.696 320.061 12.696Z" fill="#141414"/>
</svg>
